<svg width="104" height="32" viewBox="0 0 104 32" xmlns="http://www.w3.org/2000/svg"><title>Shape</title><path d="M9.484 10.276v-.698c-2.327 0-4.784.497-4.784 3.24 0 1.39.72 2.332 1.955 2.332.906 0 1.716-.556 2.227-1.46.634-1.115.602-2.16.602-3.414zm3.246 7.844a.674.674 0 0 1-.76.078c-1.069-.888-1.259-1.3-1.847-2.147-1.766 1.803-3.016 2.342-5.306 2.342C2.11 18.393 0 16.72 0 13.377c0-2.613 1.418-4.391 3.433-5.262 1.747-.768 4.187-.904 6.051-1.117v-.416c0-.767.06-1.671-.389-2.333-.394-.592-1.145-.837-1.807-.837-1.226 0-2.322.63-2.588 1.934-.055.29-.268.575-.558.589L1.02 5.6c-.263-.06-.553-.273-.48-.675C1.259 1.14 4.678 0 7.737 0c1.566 0 3.613.416 4.848 1.602 1.566 1.461 1.417 3.412 1.417 5.536v5.016c0 1.508.625 2.169 1.213 2.984.208.288.254.637-.008.855a137.68 137.68 0 0 0-2.468 2.136h-.008v-.01zm38.95-7.844v-.698c-2.333 0-4.79.497-4.79 3.24 0 1.39.723 2.332 1.96 2.332.9 0 1.716-.556 2.227-1.46.634-1.115.603-2.16.603-3.414zm3.244 7.844a.672.672 0 0 1-.76.078c-1.069-.888-1.264-1.3-1.847-2.147-1.765 1.803-3.018 2.342-5.305 2.342-2.712 0-4.817-1.672-4.817-5.016 0-2.613 1.412-4.391 3.43-5.262 1.748-.768 4.188-.904 6.055-1.117v-.416c0-.767.058-1.671-.396-2.333-.388-.592-1.14-.837-1.806-.837-1.226 0-2.317.63-2.585 1.934-.053.29-.266.575-.56.589l-3.12-.335c-.262-.06-.557-.273-.48-.675C43.449 1.14 46.872 0 49.934 0c1.565 0 3.611.416 4.846 1.602 1.568 1.461 1.418 3.412 1.418 5.536v5.016c0 1.508.625 2.169 1.213 2.984.204.288.25.637-.017.855-.656.547-1.825 1.566-2.467 2.136l-.002-.01zm39.638.045h-3.205a.61.61 0 0 1-.58-.598V1.045a.611.611 0 0 1 .622-.54h2.982a.618.618 0 0 1 .575.464v2.526h.058c.902-2.26 2.164-3.338 4.388-3.338 1.443 0 2.85.522 3.757 1.948.841 1.32.841 3.543.841 5.142v10.398c-.036.29-.302.52-.62.52h-3.227c-.294-.023-.539-.24-.57-.52V8.673c0-1.806.207-4.45-2.015-4.45-.784 0-1.502.525-1.861 1.321-.453 1.01-.511 2.015-.511 3.13v8.893c0 .332-.285.598-.629.598h-.005zM81.008.157c4.776 0 7.36 4.103 7.36 9.317 0 5.039-2.855 9.036-7.36 9.036-4.69 0-7.242-4.103-7.242-9.212 0-5.144 2.585-9.14 7.242-9.14zm.027 3.374c-2.372 0-2.52 3.23-2.52 5.246 0 2.018-.032 6.328 2.493 6.328 2.495 0 2.612-3.476 2.612-5.594 0-1.396-.059-3.06-.48-4.383-.36-1.15-1.08-1.597-2.105-1.597zM21.521 18.165h-3.218a.607.607 0 0 1-.575-.548V1.1c0-.332.276-.594.62-.594h3a.609.609 0 0 1 .584.552v2.16h.06c.783-2.087 2.254-3.06 4.236-3.06 2.015 0 3.274.973 4.179 3.06.779-2.087 2.549-3.06 4.446-3.06 1.349 0 2.825.557 3.725 1.805 1.018 1.39.811 3.41.811 5.18v10.424a.608.608 0 0 1-.621.598h-3.214a.612.612 0 0 1-.58-.598V8.813c0-.698.064-2.435-.09-3.096-.24-1.11-.96-1.421-1.892-1.421-.779 0-1.594.52-1.924 1.352-.33.834-.298 2.227-.298 3.165v8.754a.607.607 0 0 1-.62.598h-3.214a.608.608 0 0 1-.58-.598V8.813c0-1.842.302-4.553-1.984-4.553-2.312 0-2.222 2.643-2.222 4.553v8.754a.607.607 0 0 1-.62.598h-.009zM60.113 3.422V1.058c0-.357.271-.597.597-.597h10.58c.338 0 .611.245.611.597v2.024c0 .34-.29.784-.798 1.485l-5.482 7.827c2.038-.05 4.187.254 6.035 1.295.416.235.53.579.561.919v2.52c0 .344-.38.748-.779.54-3.255-1.706-7.578-1.893-11.177.018-.366.199-.75-.2-.75-.543v-2.395c0-.385 0-1.042.39-1.625l6.35-9.108h-5.527c-.34 0-.611-.24-.611-.593zm6.917 18.212c-.77-.988-5.107-.467-7.053-.237-.593.073-.684-.444-.149-.815 3.453-2.43 9.12-1.728 9.782-.913.661.818-.173 6.5-3.417 9.212-.5.416-.974.195-.753-.358.73-1.82 2.364-5.898 1.59-6.89zm-2.512 2.873c1-.743.145-1.846-.88-1.413-6.771 2.875-14.136 4.26-20.832 4.26-9.926 0-19.537-2.72-27.31-7.242-.679-.398-1.186.3-.62.81 7.201 6.505 16.722 10.417 27.297 10.417 7.542 0 16.301-2.377 22.345-6.832z" fill-rule="evenodd"/></svg>