<svg width="66" height="31" viewBox="0 0 66 31" xmlns="http://www.w3.org/2000/svg"><title>Combined Shape</title><path d="M37.964 2.504v5.031h6.311v1.803h-6.311v14.854c0 1.519.244 2.68.736 3.487.49.807 1.336 1.21 2.539 1.21.57 0 1.06-.031 1.471-.094a6.41 6.41 0 0 0 1.044-.238l.238 1.709c-.76.347-1.772.522-3.037.522-1.045 0-1.907-.175-2.587-.522a4.077 4.077 0 0 1-1.613-1.448c-.396-.617-.673-1.36-.831-2.23-.16-.87-.237-1.81-.237-2.823V9.338h-3.75V7.535h3.75V3.358l2.277-.854zm9.966 5.03l5.22 14.142a86.172 86.172 0 0 1 1.186 3.132c.348.98.68 1.946.996 2.894h.095c.316-.917.656-1.875 1.02-2.871s.768-2.048 1.21-3.156l5.267-14.142h2.373l-9.064 22.779h-1.946l-8.73-22.778h2.373zM14.276 2.68C16.3.013 19.112 0 19.112 0s.419 2.507-1.592 4.921c-2.145 2.58-4.584 2.157-4.584 2.157s-.458-2.028 1.34-4.399zm-1.084 6.155c1.041 0 2.972-1.43 5.487-1.43 4.328 0 6.03 3.079 6.03 3.079s-3.33 1.702-3.33 5.833c0 4.66 4.148 6.266 4.148 6.266s-2.9 8.16-6.816 8.16c-1.799 0-3.197-1.212-5.093-1.212-1.93 0-3.848 1.257-5.096 1.257-3.576.001-8.094-7.74-8.094-13.963 0-6.123 3.824-9.335 7.41-9.335 2.333 0 4.143 1.345 5.354 1.345z" fill-rule="evenodd"/></svg>