<svg data-name="Layer 1" xmlns="http://www.w3.org/2000/svg" viewBox="0 0 36 36"><title>arrow-right-in-circle</title><path data-name="Page-1" d="M18 0A17.33 17.33 0 0 0 5.29 5.29 17.33 17.33 0 0 0 0 18a17.33 17.33 0 0 0 5.29 12.71A17.33 17.33 0 0 0 18 36a17.33 17.33 0 0 0 12.71-5.29A17.33 17.33 0 0 0 36 18a17.33 17.33 0 0 0-5.29-12.71A17.33 17.33 0 0 0 18 0zm11 17.63a1.52 1.52 0 0 1-.07.46.73.73 0 0 1-.29.38l-6.9 7.32a1 1 0 0 1-1.62 0 1.08 1.08 0 0 1 0-1.72L25 18.84H7.15a1.09 1.09 0 0 1-.83-.34 1.35 1.35 0 0 1 0-1.75 1.09 1.09 0 0 1 .83-.34H25l-4.89-5.26a1.08 1.08 0 0 1 0-1.72 1 1 0 0 1 1.62 0l6.9 7.32a.73.73 0 0 1 .29.38 1.52 1.52 0 0 1 .07.46z"/></svg>