<svg data-name="Layer 1" xmlns="http://www.w3.org/2000/svg" viewBox="0 0 57 57"><title>caret-circle</title><path d="M25.28 14.66a1.58 1.58 0 0 0-2.57 0 1.93 1.93 0 0 0-.58 1.34 1.56 1.56 0 0 0 .58 1.26L33.45 28.5 22.71 39.69a1.62 1.62 0 0 0-.06 2.65 1.63 1.63 0 0 0 2.63 0l12.14-12.52a1.79 1.79 0 0 0 0-2.65z"/><path d="M48.63 8.37A27.44 27.44 0 0 0 28.5 0 27.44 27.44 0 0 0 8.37 8.37 27.44 27.44 0 0 0 0 28.5a27.44 27.44 0 0 0 8.37 20.13A27.44 27.44 0 0 0 28.5 57a27.44 27.44 0 0 0 20.13-8.37A27.44 27.44 0 0 0 57 28.5a27.44 27.44 0 0 0-8.37-20.13zm-2.82 37.44A23.6 23.6 0 0 1 28.5 53a23.6 23.6 0 0 1-17.31-7.19A23.6 23.6 0 0 1 4 28.5a23.6 23.6 0 0 1 7.19-17.31A23.6 23.6 0 0 1 28.5 4a23.6 23.6 0 0 1 17.31 7.19A23.6 23.6 0 0 1 53 28.5a23.6 23.6 0 0 1-7.19 17.31z"/></svg>