<svg width="131" height="27" viewBox="0 0 131 27" xmlns="http://www.w3.org/2000/svg"><title>path10</title><path d="M69.602 12.993c-1.116 0-1.92.366-2.736.74v8.436c.781.075 1.229.075 1.97.075 2.68 0 3.046-1.227 3.046-2.94v-4.03c0-1.265-.42-2.28-2.28-2.28zm-17.791-.46c-1.859 0-2.283 1.02-2.283 2.284v.71h4.563v-.71c0-1.264-.424-2.284-2.28-2.284zm-34.465 8.781c0 1 .472 1.52 1.513 1.52 1.117 0 1.778-.365 2.593-.739v-2.001H19.01c-1.156 0-1.664.215-1.664 1.22zm69.562-8.32c-1.862 0-2.507 1.015-2.507 2.28v4.617c0 1.268.645 2.287 2.507 2.287 1.857 0 2.507-1.02 2.507-2.287v-4.617c0-1.265-.65-2.28-2.507-2.28zM8.222 26.49H2.75V13.244H.015V8.68H2.75V5.938C2.75 2.214 4.294 0 8.68 0h3.653v4.566H10.05c-1.708 0-1.82.638-1.82 1.828L8.221 8.68h4.136l-.484 4.565H8.222V26.49zm18.704.034h-4.561l-.197-1.153A10.455 10.455 0 0 1 17 26.712c-3.345 0-5.125-2.234-5.125-5.325 0-3.646 2.077-4.947 5.794-4.947h3.783v-.789c0-1.86-.213-2.407-3.075-2.407h-4.68l.457-4.564h5.115c6.28 0 7.657 1.983 7.657 7.008v10.837zm15.51-12.946c-2.838-.487-3.653-.594-5.018-.594-2.453 0-3.195.541-3.195 2.625v3.94c0 2.084.742 2.627 3.195 2.627 1.365 0 2.18-.109 5.019-.597v4.452c-2.486.558-4.106.704-5.475.704-5.876 0-8.211-3.09-8.211-7.554v-3.197c0-4.468 2.335-7.563 8.211-7.563 1.369 0 2.989.147 5.475.707v4.45zm17.128 5.603H49.528v.368c0 2.084.741 2.627 3.194 2.627 2.205 0 3.55-.109 6.384-.597v4.452c-2.733.558-4.157.704-6.838.704-5.876 0-8.213-3.09-8.213-7.554v-3.656c0-3.905 1.734-7.104 7.755-7.104 6.022 0 7.754 3.162 7.754 7.104v3.656zm17.79.085c0 4.314-1.233 7.46-8.703 7.46-2.698 0-4.28-.236-7.257-.694V1.37l5.471-.91v8.626c1.182-.44 2.713-.662 4.105-.662 5.472 0 6.383 2.453 6.383 6.395v4.449zm17.538.094c0 3.721-1.537 7.331-7.966 7.331-6.432 0-7.997-3.61-7.997-7.331v-3.594c0-3.723 1.565-7.334 7.997-7.334 6.43 0 7.966 3.61 7.966 7.334v3.594zm17.525 0c0 3.721-1.538 7.331-7.965 7.331-6.432 0-7.998-3.61-7.998-7.331v-3.594c0-3.723 1.566-7.334 7.998-7.334 6.427 0 7.965 3.61 7.965 7.334v3.594zm17.986 7.13h-5.93l-5.016-8.373v8.373h-5.472V1.37l5.472-.913v16.171l5.016-7.95h5.93l-5.475 8.676 5.475 9.136zm-25.97-13.498c-1.859 0-2.504 1.016-2.504 2.281v4.617c0 1.268.645 2.287 2.504 2.287 1.856 0 2.513-1.02 2.513-2.287v-4.617c0-1.265-.657-2.28-2.513-2.28z" fill-rule="evenodd"/></svg>