<svg width="149" height="35" viewBox="0 0 149 35" xmlns="http://www.w3.org/2000/svg"><title>Group 7</title><path d="M124.69 9h1.243v15.356h-1.243V9zm12.231 13.533v-6.17s-.087-3.351-4.317-3.351-4.35 3.152-4.35 3.152l1.342-.004s-.066-2.152 2.976-2.152c3.04 0 3.008 2.488 3.008 2.488v1.488l-2.485.004c-3.549 0-5.298 1.377-5.298 3.317 0 1.94 1.063 3.317 3.663 3.317 2.6 0 4.055-1.858 4.055-1.858 0 .763.392 1.592.392 1.592h1.44s-.426-.945-.426-1.824zm-1.34-2.206c0 2.239-2.666 3.217-4.007 3.217-1.34 0-2.453-.647-2.453-2.14 0-1.492 1.75-2.47 3.876-2.47h2.583v1.392zm2.627-7.049h1.308l4.055 9.442 3.947-9.442H149s-5.167 12.328-5.647 13.489c-.48 1.16-1.624 2.233-3.03 2.233-.632 0-1.265-.376-1.265-.376l.35-.995s.316.177.937.177c.62 0 1.7-1.46 1.7-1.46l.785-1.901-4.622-11.167zm-20.045-.266c-2.322 0-3.877 1.932-3.92 1.986v-1.72H113v15.324h1.243V22.54c.042.072 1.255 2.083 3.953 2.083 2.747 0 4.872-1.791 4.872-5.893 0-4.103-2.55-5.717-4.905-5.717v-.001zm-.196 10.582c-2.255 0-3.681-2.343-3.724-2.415v-4.79c.043-.059 1.693-2.316 3.887-2.316 1.995 0 3.663 2.057 3.663 4.743 0 2.686-1.537 4.778-3.826 4.778zM23.6 22.903l7.415-4.157c.838-.47 1.717-1.669 0-2.627l-7.42-4.145-5.313 5.481 5.317 5.448zm-5.318-5.447L1.29 34.988c.384.05.846-.054 1.376-.352L23.6 22.904l-5.317-5.447v-.001zm0 0l5.312-5.482L2.666.283C2.212.029 1.716-.06 1.278.04l17.004 17.416zm0 0L1.278.04C.575.201 0 .824 0 2.075v30.823c0 1.178.453 2.007 1.29 2.089l16.992-17.532zM53.337 9.79s-1.845-1.938-6.458-1.938c-5.615 0-8.879 4.455-8.879 8.674 0 3.687 2.467 8.344 8.602 8.344 3.172 0 6.735-1.206 6.735-1.206v-2.86c0-1.406.922-1.89.922-1.89h-4.912l-1.73.992c.928-.242 3.39-.213 3.39-.213v3.545s-1.09.638-2.744.638c-4.786 0-7.888-4.336-7.888-8.295 0-4.833 3.344-6.878 6.25-6.878s4.543 2.222 4.543 2.222l-.53.898.854-.236 1.845-1.796zm7.806 3.077c-3.291 0-5.974 2.468-5.974 6.07 0 2.594 2.024 5.717 5.609 5.717 3.584 0 6.096-2.468 6.096-5.944s-2.438-5.843-5.73-5.843zm.244 11.032c-2.716 0-3.999-4.332-3.999-6.524 0-2.191 1.439-3.753 3.097-3.753 2.365 0 3.999 2.883 3.999 6.247 0 1.158-.38 4.03-3.097 4.03zm12.567-11.026c-3.29 0-5.971 2.467-5.971 6.067 0 2.593 2.023 5.715 5.605 5.715 3.584 0 6.094-2.466 6.094-5.941 0-3.475-2.437-5.841-5.728-5.841zm.244 11.027c-2.715 0-3.998-4.33-3.998-6.521 0-2.19 1.439-3.75 3.096-3.75 2.365 0 3.997 2.88 3.997 6.242 0 1.158-.38 4.028-3.096 4.028zm14.936-.08c-1.176-.839-1.405-1.24-1.405-1.602 0-.363.012-.656.848-1.476.835-.82 1.599-1.676 1.599-3.227 0-2.303-1.503-3.329-1.503-3.329l1.43-.049 1.429-.876H85.96c-2.859 0-5.015 2.277-5.015 4.73 0 1.725 1.418 3.79 4.215 3.79.29 0 .485-.064.485-.064s-.17.382-.17.889c0 .826.69 1.564.69 1.564s-6.455.006-6.455 4.278c0 2.582 2.822 3.552 5.135 3.552 2.313 0 6.274-1.288 6.274-4.579 0-1.57-.811-2.764-1.987-3.602zm-3.064-2.79c-1.69 0-3.034-2.608-3.034-4.185 0-1.576.763-2.702 2.107-2.702 1.345 0 2.943 1.595 2.943 4.504 0 1.013-.326 2.383-2.016 2.383zm-.127 9.907c-.782 0-4.106-.318-4.106-3.04 0-2.72 3.832-2.974 4.278-2.974.445 0 .826.066.826.066 1.182 1.08 2.49 1.614 2.49 3.302 0 2.421-2.708 2.646-3.488 2.646zm5.302-23.039L92.838 7h3.496c-.814.449-1.12.805-1.14 2.9-.022 2.095-.127 12.765-.127 12.765 0 .8.672 1.016 1.278 1.016.551 0 .804.11.804.11l-.742.533h-4.24s.61-.561.617-1.122L93 7.902l-1.757-.004zm15.461 8.033s-.587-3.11-4.161-3.11-5.435 2.908-5.435 5.765c0 2.857 1.64 6.069 5.728 6.069 2.864 0 4.162-2.2 4.162-2.2s-1.37.835-2.889.835c-2.276 0-4.92-2.479-4.92-6.12 0-2.453 1.655-3.439 2.693-3.439 2.08 0 2.46 1.935 2.277 2.276-.184.341-4.897 2.326-4.897 2.326l1.885-.1 5.557-2.302z" fill-rule="evenodd"/></svg>