<svg width="107" height="36" viewBox="0 0 107 36" xmlns="http://www.w3.org/2000/svg"><title>Shape</title><path d="M106.5 11.032h-8.444v14.081c0 .64-.252 1.179-.647 1.621-.395.395-.934.59-1.545.636h-4.923c-.682-.047-1.221-.244-1.617-.636-.395-.442-.646-.981-.646-1.62V11.031h-8.444V25.85c.071 1.966.395 3.68 1.257 5.045.827 1.401 1.905 2.407 3.306 3.09 1.473.683 3.162 1.078 5.066 1.078h8.193v-.072c1.76 0 3.306-.395 4.563-1.15 1.222-.79 2.228-1.868 2.839-3.234.683-1.365 1.042-2.993 1.042-4.757V11.032zm-84.455.884c-1.473-.64-3.094-.935-4.858-.884H11.74l-2.113.244a9.188 9.188 0 0 0-.737.248V.137H.5v34.926h8.39V20.945c.05-.589.248-1.178.69-1.57.438-.395.93-.64 1.617-.64h4.908c.59 0 1.129.248 1.57.64.443.392.637.981.687 1.57v14.118h8.394v-15.2c0-2.108-.442-3.826-1.28-5.152-.88-1.276-2.008-2.206-3.431-2.795zm28.544 13.197c-.035.64-.215 1.179-.61 1.621-.467.395-1.006.59-1.617.636h-4.923c-.647-.047-1.186-.244-1.581-.636-.431-.442-.61-.981-.683-1.62V11.031h-8.372V25.85c0 1.966.395 3.68 1.15 5.045.79 1.401 1.94 2.407 3.342 3.09 1.473.683 3.09 1.078 5.066 1.078h8.228v-.072c1.797 0 3.306-.395 4.528-1.15a8.182 8.182 0 0 0 2.91-3.234c.611-1.365.97-2.993 1.007-4.757V11.032h-8.445v14.081zm14.84 9.95h8.373V.137h-8.373v34.926z" fill-rule="evenodd"/></svg>