<svg width="115" height="34" viewBox="0 0 115 34" xmlns="http://www.w3.org/2000/svg"><title>Group 6</title><g fill-rule="evenodd"><path d="M28.685 24.848c-.778 1.75-1.151 2.53-2.154 4.074-1.398 2.16-3.369 4.845-5.811 4.87-2.171.02-2.73-1.432-5.675-1.417-2.945.016-3.56 1.441-5.73 1.421-2.443-.022-4.31-2.449-5.71-4.606-3.91-6.034-4.319-13.114-1.908-16.878 1.713-2.674 4.418-4.239 6.96-4.239 2.59 0 4.218 1.438 6.357 1.438 2.077 0 3.341-1.44 6.335-1.44 2.261 0 4.658 1.25 6.367 3.405-5.595 3.108-4.685 11.206.969 13.372z"/><path d="M19.08 5.658c1.086-1.415 1.912-3.412 1.613-5.453-1.777.124-3.856 1.27-5.068 2.763-1.1 1.355-2.01 3.365-1.657 5.32 1.94.06 3.947-1.115 5.111-2.63zm19.531 9.6c0 1.226-.92 2.214-2.358 2.214-1.381 0-2.3-.99-2.272-2.214-.028-1.281.891-2.243 2.3-2.243 1.41 0 2.302.962 2.33 2.243zm-4.514 18.217V19.222h4.371v14.253h-4.37zm11.759-15.914h-5.203v-3.73h14.893v3.73h-5.29v15.914h-4.4V17.56zM69.432 28.9c0 1.864.058 3.38.114 4.575H65.75l-.202-2.01h-.087c-.546.873-1.87 2.332-4.4 2.332-2.847 0-4.946-1.808-4.946-6.209v-8.363h4.4v7.665c0 2.069.661 3.321 2.185 3.321 1.208 0 1.898-.844 2.185-1.544.114-.262.142-.612.142-.961v-8.481h4.4V28.9h.004zm3.506-5.132c0-1.78-.057-3.295-.114-4.546h3.795l.201 1.953h.087c.575-.902 2.011-2.273 4.342-2.273 2.875 0 5.03 1.924 5.03 6.12v8.453h-4.37v-7.9c0-1.834-.633-3.088-2.213-3.088-1.209 0-1.927.846-2.213 1.66-.114.29-.172.699-.172 1.107v8.218h-4.37v-9.704h-.003zm20.212 3.994c.144 1.836 1.927 2.711 3.968 2.711 1.495 0 2.703-.204 3.88-.582l.576 3c-1.437.584-3.19.903-5.09.903-4.773 0-7.503-2.826-7.503-7.287 0-3.614 2.213-7.605 7.1-7.605 4.545 0 6.269 3.583 6.269 7.112 0 .757-.087 1.428-.143 1.748H93.15zm5.147-3.032c0-1.078-.461-2.886-2.473-2.886-1.84 0-2.588 1.69-2.704 2.886h5.177zm6.64 4.868c.807.494 2.473 1.077 3.767 1.077 1.323 0 1.87-.467 1.87-1.195s-.433-1.078-2.072-1.632c-2.904-.99-4.025-2.593-3.996-4.255 0-2.681 2.243-4.693 5.723-4.693 1.638 0 3.106.38 3.968.817l-.777 3.06c-.634-.35-1.84-.817-3.048-.817-1.062 0-1.667.438-1.667 1.166 0 .671.546 1.021 2.271 1.633 2.675.932 3.796 2.303 3.825 4.4 0 2.653-2.07 4.635-6.096 4.635-1.839 0-3.48-.439-4.543-1.022l.775-3.174z"/></g></svg>