<svg width="241" height="95" viewBox="0 0 241 95" xmlns="http://www.w3.org/2000/svg"><title>BEFORE THE FLOOD</title><path d="M41.67 38h7.498c5.069 0 6.23-2.482 6.23-6.283V23.85c0-2.27-.739-3.75-2.534-4.594 1.637-.845 2.323-2.27 2.323-4.488v-7.92c0-3.802-1.214-5.808-6.336-5.808h-7.18V38zm4.91-4.646V21.579h2.113c1.372 0 1.795.74 1.795 1.954v8.078c0 1.162-.423 1.743-1.69 1.743h-2.217zm2.113-27.615c1.478 0 1.69.792 1.69 2.376v6.283c0 1.637-.212 2.64-1.743 2.64h-2.06V5.74h2.113zm30.12 15.84h5.49v-4.54h-5.49v-11.3h6.336V1.04H73.902V38H85.15v-4.646h-6.336V21.579zM108.035 38V21.58h5.227v-4.542h-5.227V5.74h6.072v-4.7h-10.982V38h4.91zm30.12-3.854c-1.426 0-1.954-.898-1.954-2.27V7.164c0-1.267.528-2.218 1.954-2.218s1.9.95 1.9 2.218v24.71c0 1.373-.474 2.27-1.9 2.27zm0 4.382c5.333 0 6.811-2.798 6.811-6.6V7.165c0-3.802-1.478-6.653-6.811-6.653s-6.864 2.851-6.864 6.653v24.763c0 3.802 1.531 6.6 6.864 6.6zM163.206 38h4.91V22.371h.74c1.478 5.227 3.062 10.455 4.54 15.629h5.333c-1.742-5.28-3.484-10.56-5.28-15.84 2.693-.792 3.38-2.851 3.38-5.966V7.376c0-3.802-1.162-6.336-6.23-6.336h-7.393V38zm4.91-20.117V5.74h2.06c1.32 0 1.795.581 1.795 1.848v8.448c0 1.215-.422 1.848-1.742 1.848h-2.112zm31.916 3.696h5.491v-4.54h-5.491v-11.3h6.336V1.04H195.12V38h11.247v-4.646h-6.336V21.579zM7.54 59.47h4.54v-2.43H.467v2.429h4.54V94h2.535V59.469zm24.787 17.054h6.97V94h2.534V57.04h-2.534V74.2h-6.97V57.04h-2.534V94h2.534V76.523zm31.862 0h6.548V74.2H64.19V59.469h7.604V57.04H61.656V94h10.138v-2.429H64.19V76.523zM115.402 94V76.523h6.23V74.2h-6.23V59.469h7.233V57.04h-9.768V94h2.535zm25.473 0h8.712v-2.429h-6.177V57.04h-2.535V94zm31.863-1.742c-2.693 0-3.432-1.743-3.432-4.172V62.954c0-2.43.739-4.172 3.432-4.172 2.692 0 3.432 1.743 3.432 4.172v25.132c0 2.43-.74 4.172-3.432 4.172zm0-35.746c-4.647 0-5.967 2.64-5.967 6.442v25.132c0 3.802 1.32 6.442 5.967 6.442 4.646 0 5.966-2.64 5.966-6.442V62.954c0-3.802-1.32-6.442-5.966-6.442zm30.7 35.746c-2.692 0-3.432-1.743-3.432-4.172V62.954c0-2.43.74-4.172 3.432-4.172 2.693 0 3.432 1.743 3.432 4.172v25.132c0 2.43-.739 4.172-3.432 4.172zm0-35.746c-4.646 0-5.966 2.64-5.966 6.442v25.132c0 3.802 1.32 6.442 5.966 6.442 4.647 0 5.967-2.64 5.967-6.442V62.954c0-3.802-1.32-6.442-5.967-6.442zM228.701 94h5.65c5.068 0 6.335-2.587 6.335-6.389V63.43c0-3.802-1.372-6.389-6.441-6.389H228.7V94zm2.534-34.531h2.957c3.115 0 3.96 1.531 3.96 3.96V87.61c0 2.429-.792 3.96-3.907 3.96h-3.01v-32.1z" fill="#FFF" fill-rule="evenodd"/></svg>