<svg viewBox="0 0 186 17" xmlns="http://www.w3.org/2000/svg"><title>BEFORE THE FLOOD</title><path d="M.602 16h3.124c2.112 0 2.596-1.034 2.596-2.618v-3.278c0-.946-.308-1.562-1.056-1.914.682-.352.968-.946.968-1.87v-3.3c0-1.584-.506-2.42-2.64-2.42H.602V16zm2.046-1.936V9.158h.88c.572 0 .748.308.748.814v3.366c0 .484-.176.726-.704.726h-.924zm.88-11.506c.616 0 .704.33.704.99v2.618c0 .682-.088 1.1-.726 1.1h-.858V2.558h.88zm12.55 6.6h2.288V7.266h-2.288V2.558h2.64V.6h-4.686V16h4.686v-1.936h-2.64V9.158zM28.254 16V9.158h2.178V7.266h-2.178V2.558h2.53V.6h-4.576V16h2.046zm12.55-1.606c-.594 0-.814-.374-.814-.946V3.152c0-.528.22-.924.814-.924s.792.396.792.924v10.296c0 .572-.198.946-.792.946zm0 1.826c2.222 0 2.838-1.166 2.838-2.75V3.152c0-1.584-.616-2.772-2.838-2.772s-2.86 1.188-2.86 2.772V13.47c0 1.584.638 2.75 2.86 2.75zM51.242 16h2.046V9.488h.308c.616 2.178 1.276 4.356 1.892 6.512h2.222c-.726-2.2-1.452-4.4-2.2-6.6 1.122-.33 1.408-1.188 1.408-2.486V3.24c0-1.584-.484-2.64-2.596-2.64h-3.08V16zm2.046-8.382v-5.06h.858c.55 0 .748.242.748.77v3.52c0 .506-.176.77-.726.77h-.88zm13.298 1.54h2.288V7.266h-2.288V2.558h2.64V.6H64.54V16h4.686v-1.936h-2.64V9.158zm21.558-7.546h1.892V.6h-4.84v1.012h1.892V16h1.056V1.612zm10.328 7.106h2.904V16h1.056V.6h-1.056v7.15h-2.904V.6h-1.056V16h1.056V8.718zm13.276 0h2.728V7.75h-2.728V1.612h3.168V.6h-4.224V16h4.224v-1.012h-3.168v-6.27zM133.086 16V8.718h2.596V7.75h-2.596V1.612h3.014V.6h-4.07V16h1.056zm10.614 0h3.63v-1.012h-2.574V.6H143.7V16zm13.276-.726c-1.122 0-1.43-.726-1.43-1.738V3.064c0-1.012.308-1.738 1.43-1.738 1.122 0 1.43.726 1.43 1.738v10.472c0 1.012-.308 1.738-1.43 1.738zm0-14.894c-1.936 0-2.486 1.1-2.486 2.684v10.472c0 1.584.55 2.684 2.486 2.684 1.936 0 2.486-1.1 2.486-2.684V3.064c0-1.584-.55-2.684-2.486-2.684zm12.792 14.894c-1.122 0-1.43-.726-1.43-1.738V3.064c0-1.012.308-1.738 1.43-1.738 1.122 0 1.43.726 1.43 1.738v10.472c0 1.012-.308 1.738-1.43 1.738zm0-14.894c-1.936 0-2.486 1.1-2.486 2.684v10.472c0 1.584.55 2.684 2.486 2.684 1.936 0 2.486-1.1 2.486-2.684V3.064c0-1.584-.55-2.684-2.486-2.684zM180.294 16h2.354c2.112 0 2.64-1.078 2.64-2.662V3.262c0-1.584-.572-2.662-2.684-2.662h-2.31V16zm1.056-14.388h1.232c1.298 0 1.65.638 1.65 1.65v10.076c0 1.012-.33 1.65-1.628 1.65h-1.254V1.612z" fill="#FFF" fill-rule="evenodd"/></svg>