<svg xmlns="http://www.w3.org/2000/svg" viewBox="0 0 1000 248.7"><path d="M.6 243.8h168.9V1.7H.6v242.1zM24.9 26.3H145v193.2H24.9V26.3zm201.5-.5h.2c13.1 21.6 26.5 40.8 39.9 60.3h10.2V2h-11.2v60h-.2c-13.4-21.6-26.5-40.8-39.9-60h-10.2v84.1h11.2V25.8zM300 63h24.8l6.6 23.1h15.8L320.9 2H309l-28.4 84.1h12.2L300 63zm13.4-44.5h.2c3.2 12.9 6.3 23.3 9.2 34.3h-19c3.5-11 6.7-21.4 9.6-34.3zm46.7 67.6h13.8V13.2h21.7V1.7h-57.2v11.5h21.7zm93.1 1.4c8 0 15.8-2.2 23.3-5.1V47.7l-13.9.5V74c-3.2 1.5-6.1 1.9-10 1.9-12.2 0-23.8-11.9-23.8-31.8 0-19.2 10.2-31.4 25.3-31.4 5.3 0 11.2 1.9 15.1 4.4l4.4-10C469 3.5 461.4.5 453.7.5c-24.8 0-39.9 20.2-39.9 43 0 24.8 15.3 44 39.4 44zm76.3-12.6h-27.7V47.7h22.8V36.3h-22.8V13.2h23.3v-11h-37.4v84.1h41.8zm37.2 12.6c21.4 0 34.8-19.7 34.8-44.7 0-23.6-14.8-42.3-34.8-42.3s-34.8 18.7-34.8 42.3c0 25.3 13.4 44.7 34.8 44.7zm-.3-75.1c14.1 0 19.9 14.8 19.9 30.4 0 16-5.1 32.8-19.9 32.8-14.8 0-19.9-16.8-19.9-32.8 0-15.5 6.1-30.4 19.9-30.4zm361.9 94.8c-41.1 0-71.2 24.5-71.2 68.8 0 44.2 30.1 68.8 71.2 68.8s71.2-24.5 71.2-68.8c0-44.2-30.1-68.8-71.2-68.8zm0 115.5c-16.5 0-22.4-14.1-22.4-46.7s5.8-46.7 22.4-46.7c16.5 0 22.4 14.1 22.4 46.7s-5.9 46.7-22.4 46.7zM781.5 82.9h11.4c8 0 10 4.1 10 11.9v31.1l-.5.5c-5.8-12.2-21.4-18.5-37.9-18.5-41.8 0-54.2 35.2-54.2 69s12.4 69 54.2 69c17.7 0 32.1-7.5 40.1-24.3l.7-1.7c5.3 17 19.4 25.3 41.3 25.5h2.4V60.8h-67.3l-.2 22.1zm-.7 137.3c-15.6 0-21.9-17.3-21.9-44.2 0-27.2 6.3-44 21.9-44 15.6 0 21.9 17 21.9 44s-6.4 44.2-21.9 44.2zm-122-109.6c-22.4 0-35.5 7.8-47.6 25.5h-.5v-21.4h-61.2v22.1h7.8c8 0 10 4.1 10 11.9V210c0 7.8-1.9 11.9-10 11.9H547c-7.5-.2-9.2-4.4-9.2-11.9v-95.8h-68.3v22.1h12.2c8 0 10 4.1 10 11.9v51.3c0 11.7-8 23.6-20.7 23.6-21.4 0-21.4-7.5-21.4-27.2v-45.2c0-26-13.6-40.6-42-40.6-18.2 0-34 9.5-43.7 24.5-6.3-16.5-20.2-24.5-37.7-24.5-20.4 0-35 9.2-45.4 26.2h-.5v-22.1H216v22.1h11.2c8 0 10 4.1 10 11.9v61.5c0 7.8-1.9 11.9-10 11.9h-11.9v22.1h82.1v-22.1H293c-8 0-10-2.4-10-6.3v-55.2c0-12.9 4.9-24.8 19.9-24.8 15.8 0 17.5 10 17.5 23.8V210c0 8.5-1.9 11.9-10 11.9h-3.9V244h73.2v-22.1h-3.6c-8.5 0-10-1.2-10-6.3v-59.5c0-12.2 4.9-20.7 19.9-20.7 12.6 0 17.5 14.1 17.5 23.8v45.4c0 29.9 10.5 43.5 42 43.5 22.4 0 35.5-7.8 47.6-25.5h.5V244h135.6v-22.1h-6.6c-8 0-10-4.1-10-11.9v-51c0-11.7 8-23.6 20.7-23.6 18.7 0 21.4 10.9 21.4 27V202c0 27.9 15.6 41.8 43.5 42h2.4v-86.6c.2-28.5-10.2-46.8-41.8-46.8z"/></svg>