<svg width="110" height="32" viewBox="0 0 110 32" xmlns="http://www.w3.org/2000/svg"><title>nat_geo</title><path d="M3.24 28.784h16.042V3.324H3.24v25.46zM0 .11h22.537V32H0V.11zm37.504 14.298h-1.39c-1.834-2.56-3.651-5.089-5.453-7.961h-.016v7.96h-1.549V3.31h1.391c1.833 2.545 3.65 5.058 5.437 7.914h.031V3.31h1.534m4.425 0l-3.888 11.098H39.7l.98-3.028h3.382l.885 3.028h2.15L43.51 3.309h-1.596zm-.743 6.711c.443-1.467.9-2.81 1.296-4.526h.032c.442 1.717.853 3.06 1.264 4.526H41.17zm7.729 4.387v-9.6h-2.94V3.309h7.823v1.499h-2.955v9.6m3.587-11.099h1.912v11.099h-1.912zM62.27 14.61c2.94 0 4.773-2.59 4.773-5.9 0-3.106-2.023-5.588-4.773-5.588-2.75 0-4.773 2.466-4.773 5.588 0 3.31 1.833 5.9 4.773 5.9zm0-1.591c-2.007 0-2.718-2.186-2.718-4.309 0-2.045.806-3.996 2.718-3.996s2.72 1.951 2.72 3.996c-.016 2.123-.712 4.309-2.719 4.309zm14.35 1.389h-1.39c-1.833-2.56-3.651-5.089-5.453-7.961h-.016v7.96h-1.548V3.31h1.39c1.834 2.545 3.651 5.058 5.437 7.914h.032V3.31h1.549m4.393 0l-3.888 11.098h1.676l.98-3.028h3.382l.885 3.028h2.15L82.61 3.309h-1.597zm-.727 6.711c.443-1.467.901-2.81 1.296-4.526h.032c.442 1.717.853 3.06 1.264 4.526h-2.592zm6.48-6.711h1.913v9.615h3.809v1.483h-5.722m-50.448 9.288v4.589c-1.027.39-2.102.687-3.193.687-3.303 0-5.389-2.545-5.389-5.807 0-3.028 2.086-5.682 5.453-5.682 1.043 0 2.086.375 2.734.858l-.632 1.312c-.522-.313-1.312-.593-2.055-.593-2.055 0-3.445 1.607-3.445 4.12 0 2.639 1.612 4.184 3.255 4.184.522 0 .949-.063 1.344-.265v-3.403m8.819-4.527H40v3.044h3.146v1.483H40v3.59h3.794v1.483h-5.722V17.67h5.137m5.943 11.302c2.94 0 4.773-2.592 4.773-5.9 0-3.107-2.023-5.59-4.773-5.59-2.75 0-4.773 2.483-4.773 5.59 0 3.308 1.834 5.9 4.773 5.9zm0-1.592c-2.007 0-2.718-2.186-2.718-4.309 0-2.045.806-3.996 2.718-3.996 1.913 0 2.719 1.951 2.719 3.996 0 2.123-.712 4.309-2.719 4.309zm14.019-3.684v4.589c-1.027.39-2.102.687-3.193.687-3.303 0-5.389-2.545-5.389-5.807 0-3.028 2.086-5.682 5.453-5.682 1.043 0 2.086.375 2.734.858l-.632 1.312c-.506-.313-1.312-.593-2.055-.593-2.055 0-3.445 1.607-3.445 4.12 0 2.639 1.612 4.184 3.255 4.184.506 0 .949-.063 1.344-.265v-3.403m10.494 5.073l-2.26-4.605c1.233-.656 1.944-1.967 1.944-3.294 0-2.154-1.328-3.2-3.477-3.2h-3.003v11.1h1.928v-4.184h.87l1.817 4.184h2.181zm-4.868-9.6h.854c1.138 0 1.786.655 1.786 1.795 0 1.483-.917 2.154-1.834 2.2-.19.016-.648.032-.806.048v-4.043zm8.788-1.499l-3.888 11.1h1.675l.98-3.029h3.382l.885 3.029h2.15l-3.588-11.1h-1.596zm-.727 6.712c.442-1.451.9-2.81 1.296-4.526h.031c.443 1.717.854 3.06 1.265 4.526H74.93zm8.455 4.387h-1.928V17.67h3.003c2.15 0 3.493 1.046 3.493 3.2 0 1.873-1.391 3.715-3.699 3.715h-.9v-1.373c.094-.016.632-.032.837-.047.917-.047 1.833-.718 1.833-2.201 0-1.14-.648-1.795-1.77-1.795h-.869m13.481 9.6h-1.928V23.43H90.94v5.339h-1.913V17.67h1.913v4.277h3.998v-4.246h1.928m1.85-.031h1.912v11.099h-1.912zm10.589 2.014c-.459-.281-1.233-.624-1.976-.624-1.96 0-3.382 1.607-3.382 4.12 0 2.639 1.58 4.184 3.445 4.184.743 0 1.423-.234 1.928-.546l.522 1.373c-.569.39-1.612.765-2.545.765-3.303 0-5.389-2.544-5.389-5.807 0-3.028 2.07-5.682 5.421-5.682.996 0 1.928.406 2.592.859" fill-rule="evenodd"/></svg>