<svg xmlns="http://www.w3.org/2000/svg" viewBox="0 0 271.1 262.6"><path d="M7.2 252.3c-1.1-1.9-2.5-3.6-3.1-5.6-1.7-5.9-2-12-1-18 1.6-9.6 3.3-19.2 5.6-28.6 2.3-9.4 5.4-18.5 8.4-27.7 2.7-8.2 5.9-16.3 8.5-24.6 2.2-7 2.4-14.3.6-21.5-1.3-5.5-2.4-11.1-3.6-16.6-.2-.9-.6-1.9-1.1-2.6-2.4-3-4.9-5.9-7.2-8.8-2-2.5-1.4-5.5-.4-8.1.7-1.8.7-3.1-.6-4.6-3-3.3-6-6.6-8.8-10-1.6-2-2.9-4.3-3.9-6.6-.9-2-.3-4.2 1.7-5.4 2-1.2 3.3.3 4.6 1.6 3.4 3.6 6.6 7.5 10.3 10.8C24 82 34 83.1 42 78.5c2.3-1.3 3.9-3.9 5.8-5.8 4.9-5.2 10-10.2 14.6-15.6 1.5-1.7 2.3-4.3 2.8-6.6.5-2 .2-4.3 0-6.4-.3-3.5-1.9-6.2-4.7-8.5-5.2-4.2-10-8.9-14.8-13.4-1.4-1.3-3.6-2.5-1.8-5.1 1.3-1.9 4-2.5 6.4-.8 4.8 3.3 9.6 6.6 14.2 10.4 2.4 2 4.2 3.2 7.4 1.7 4-1.9 7.8-1.6 11.2 1.9 3.8 3.9 8.7 5.9 14.2 6.4 7.5.7 15 2 22.5 2.4 9.2.4 17.8-2.5 26.2-6 9-3.7 18-7.4 27.1-10.9 6.1-2.4 12.3-4.6 18.6-6.5 8.1-2.5 16.3-4.9 24.6-6.9 11.9-2.9 23.8-5.7 35.8-7.8 5.8-1 11.9-1.5 17.7 1.1.5.2.9.5 1.7 1-1 .7-1.7 1.4-2.5 1.7-3 1.3-6.3 2.1-9.1 3.7-5.1 3-10.2 6.2-14.8 9.8-8.8 6.9-16.1 15.3-22.7 24.3-7.8 10.6-14.9 21.7-20.1 33.8-4 9.4-6.5 19.3-7.1 29.6-.3 5.2-1.3 10.4-1.7 15.6-.4 4.2-.4 8.4-.8 12.5-.7 7.1-1.6 14.3-2.6 21.4-.7 5.1-1.9 10.1-2.9 15.1-.3 1.6-.9 3.1-1.5 4.5-1.3 3-2.2 5.9-2.3 9.2-.2 2.8-1.5 5.6-2.7 8.3-.7 1.6-.6 2.5.5 3.7 11.4 12.2 22.8 24.4 34.1 36.7 8.6 9.3 17.2 18.6 25.8 28 .3.4.6.8.6 1.7-.7-.6-1.5-1.1-2.2-1.8-11.5-11.8-22.9-23.5-34.3-35.3-8.4-8.7-16.9-17.4-25.3-26.2-1.7-1.8-3-3-5.8-1.5-3.1 1.6-6.6 2.1-10.3 1.7-2.4-.3-5.1 1.3-7.6 2.1-7.1 2.3-14.3 4-21.9 4.4-4 .2-8 .9-12 1.1-8.2.3-16.4.6-24.6.5-14.6-.2-28.9 1.5-42.5 7-7.1 2.8-14.1 5.8-20.7 9.6-6 3.5-11.6 7.9-17 12.3-4.4 3.6-7 8.6-8.4 14.2-.1.5-.3 1-.5 1.5-.9-.2-1.2-.1-1.4 0z"/></svg>