<svg width="96" height="30" viewBox="0 0 96 30" xmlns="http://www.w3.org/2000/svg"><title>Combined Shape</title><path d="M15.476 9.694c0-2.697-2.17-4.87-4.824-4.87H8.259v9.697h2.393c2.654 0 4.824-2.174 4.824-4.827m10.882 19.332h-8.782l-6.972-9.676H8.26v9.655H.52V0h11.088C18 0 23.216 4.346 23.216 9.694c0 3.262-2 6.175-5.044 7.957l8.186 11.375zM47 17.652c0 6.57-5.342 11.83-11.912 11.83-6.568 0-11.871-5.26-11.871-11.83 0-6.565 5.303-11.829 11.87-11.829 6.57 0 11.913 5.264 11.913 11.83zm-11.912-6.217c-2.044 0-3.783 2.778-3.783 6.217 0 3.44 1.739 6.22 3.783 6.22 2.091 0 3.827-2.781 3.827-6.22 0-3.439-1.736-6.217-3.827-6.217zm30.075-5.13l-8.916 8.914V6.275h-7.738v22.73h7.738v-9.22l9.308 9.22h9.74l-11.829-11.83 9.797-9.793v13.49c0 4.478 2.694 8.61 9.476 8.61 3.22 0 6.175-1.825 7.611-3.478l3.48 3.001h1.651v-22.7h-7.738V21c-.871 1.522-2.085 2.478-3.962 2.478-1.904 0-2.777-1.129-2.777-4.739V6.305H65.162z" fill-rule="evenodd"/></svg>