<svg xmlns="http://www.w3.org/2000/svg" viewBox="0 0 85.4 65.2"><path d="M32.6 0C14.6 0 0 14.6 0 32.6s14.6 32.6 32.6 32.6 32.6-14.6 32.6-32.6S50.6 0 32.6 0zm0 9.2a6.7 6.7 0 1 1-6.7 6.7c0-3.7 3-6.7 6.7-6.7zM9.7 27.8a6.7 6.7 0 1 1 13.4 0 6.7 6.7 0 0 1-13.4 0zm13 25.7a6.7 6.7 0 1 1 0-13.4 6.7 6.7 0 0 1 0 13.4zm9.9-17.3c-2 0-3.6-1.6-3.6-3.6s1.6-3.6 3.6-3.6 3.6 1.6 3.6 3.6-1.6 3.6-3.6 3.6zm10.1 17.3a6.7 6.7 0 1 1 0-13.4 6.7 6.7 0 0 1 0 13.4zm6.1-19a6.7 6.7 0 0 1 0-13.4c3.7 0 6.7 3.1 6.6 6.8 0 3.6-2.9 6.5-6.6 6.6zm36.6 17l-9.7 11.4c-7.5-7.1-19.8-3.2-19.8-3.2 3.8-3.4 6.9-7.6 9-12.3-.1.1 12.2-2.6 20.5 4.1z"/></svg>