<svg id="Layer_1" data-name="Layer 1" xmlns="http://www.w3.org/2000/svg" viewBox="0 0 57 57"><defs><style>.cls-1{fill-rule:evenodd}</style></defs><title>search</title><path class="cls-1" d="M41 35.77l.59-1a22.38 22.38 0 0 0 3.56-12.17 21.74 21.74 0 0 0-6.61-16A21.74 21.74 0 0 0 22.56 0a21.74 21.74 0 0 0-16 6.61A21.74 21.74 0 0 0 0 22.56a22 22 0 0 0 6.61 16 21.62 21.62 0 0 0 16 6.68 22.93 22.93 0 0 0 12.32-3.71l1-.74L52 57l5-5zm-5.38-.05A17.48 17.48 0 0 1 22.72 41a17.48 17.48 0 0 1-12.86-5.28 17.63 17.63 0 0 1-5.3-12.92 17.63 17.63 0 0 1 5.3-12.92 17.48 17.48 0 0 1 12.86-5.32 17.48 17.48 0 0 1 12.87 5.32A17.7 17.7 0 0 1 41 22.8a17.7 17.7 0 0 1-5.41 12.92z"/></svg>