<svg xmlns="http://www.w3.org/2000/svg" viewBox="0 0 271.8 296.9"><path d="M39.8 12.8c54-31.2 93.2 4.1 96.4 6.4 3.2 2.3 2.3 4.5 2.3 4.5l-1 5s8.8-2.1 11.1-3.1c2.3-.9 4.4-1.4 6.2-2.7 1.8-1.3 3.1-1.7 4.3-1.9 1.3-.3 2.4.5 4.2-.5 1.8-1 3.7-.8 5.8-.7 2.1.1 3.7-.1 5.6-1.3 1.9-1.2 4.2-.5 5.7 0s2.7.7 4.5-.2c1.8-.9 3.6-.6 3.6-.6 28.9-2.2 64.8 17.6 75.8 26.7 11.1 9.2 7.3 17.6 5 21.7-2.3 4.1-13.1 10.6-13.1 10.6S212.9 94.5 211.7 95c-1.1.5-1.9 1.5-1.9 1.5-1.8 2.7-4 2.5-6.6 2-2.6-.5-3 1.7-3.3 2-.3.3-.7 1.1-2 1.7-1.4.6-3.4-.3-3.9-.5-.5-.1-1.9-.5-2.7 1.3-.7 1.8-2.7.9-2.7.9l-5.2-1.3s-3 1.4-3.9 1.8c-.9.4-2.6.6-2.6.6l-14-.3s2 1.3 3.3 4.3c5.5 12.7-4.8 47.2-4.8 47.2s-10.3 23-27.3 35.2l-2.1 1.1c5.7-21.9-7.3-51.8-7.3-51.8l5.8-5.7s-7.1 1.2-8.3-2.4c0 0-1.4-3.7 1.5-7.2 2.8-3.5 2.4-3.1 2.4-3.1s.1-2.1-1.5-1.1c-83.4 52-71.1 92.4-69.6 95.9 1.5 3.4 4.9 12.3 11 18.2 6.1 5.9 11.6 18.1 11.6 18.1s6.2 18.3 2.7 31.3l-1.5-3.6s-7.3-16.7-23.4-18.6c-11.2-1.3-17.8-1.4-17.8-1.4s-14.2 14.6-18.3 17.8c-4.1 3.2-5.7 4.9-5.7 4.9L.8 296.9c-3.5-10 6.4-31.4 6.4-31.4s19.3-39.4 21.4-44.5c2.1-5 1.9-6.6 1.9-6.6l.9-18.5-10.4 4.5s.9-6.4 4.4-11.4c3.6-5 4.9-10.8 4.9-10.8-6.4-98.1 72.6-134.6 72.6-134.6s9.6-2.9-1.5-1.2-20.1-8.9-28.9-15.9C63.6 19.5 42 13.6 42 13.6l-2.2-.8z"/></svg>