<svg xmlns="http://www.w3.org/2000/svg" viewBox="0 0 221.5 315.6"><path d="M183.9 264.9c-.5-2.7-1.2-5.3-1.5-8-.4-3.6-1-7.3-.7-10.9.4-4.6 2.5-5.4 6.8-3.1.5-1 .9-2.1 1.4-3.1.5-.9 1.3-1.7 2.9-3.7.2 3.3.6 5.2.3 7.1-2.5 16.6-5 33.3-12.7 48.6-3.9 7.8-7.7 15.8-16 20.4-10.8 6-30.4 3.6-39.2-5.2-14.6-14.5-21-32.8-24.4-52.4-1-5.7-1.3-11.5-2.1-17.3-.3-2.6-1.7-4-4-5.9-4.3-3.6-7.7-8.7-10.2-13.8-2.3-4.8-2.9-10.4-4.3-15.6-.3-1.1-.3-2.8-1-3.1-5.3-2.2-10.5-4.7-16.1-5.8-3.6-.7-6.4-.8-6.8-5.3-.1-1.2-1.7-3.1-2.9-3.4-8.6-2.1-14.9-7.5-21.5-13-15.8-13.2-25.3-30.2-30.8-49.6-2.6-9.3-1.3-18.4 6.5-25.1 7-5.9 14.4-11.3 21.7-16.7 13.3-10 23-22.9 31.7-36.8 2.6-4.2 5.8-8.2 9-11.9 1.9-2.2 4.3-4.2 6.9-5.7 10.2-5.7 19.8-12.1 27.8-20.8 6.3-6.8 7.5-6.2 14.1.6 5 5.2 11 9.7 17.1 13.7 8 5.2 15.7 10.6 21.6 18.2 1.8 2.3 3.6 4.8 4.9 7.4 7 14.4 17.3 25.7 29.9 35.5 8.7 6.8 16.3 15 24.3 22.7 5.9 5.7 5.4 13.5 4.1 20.2-1.4 7.3-4.3 14.8-8.2 21.2-7.2 12-16 22.9-26.8 32-5.3 4.4-11.1 8.3-16.6 12.5-1.2.9-1.7 2.7-2.9 3.7-2.7 2.2-5.3 5.4-8.4 6-4.2.9-8.9 0-13.3-.7-3.2-.5-4.5.3-5.1 3.5-2.4 12.3-8.3 22.8-16.2 32.4-.7.9-.9 2.4-1.1 3.6-1.5 14.5-.7 29 3.6 42.9 1.9 6.4 5 12.7 8.9 18.1 5 6.9 12.8 9.4 21.2 7.6 6.4-1.3 10.1-6.5 13.6-11.6 4.6-6.7 8.8-13.2 4.7-22.1-1.2-2.7-.4-6.5.1-9.7.2-1.2 1.9-2.8 3.2-3.2.8-.2 2.3 1.5 3.2 2.5.8 1 1.2 2.2 1.8 3.3.4.2.9 0 1.5-.2z"/></svg>