<svg id="_x37_0be1a64-2457-40a5-bb41-05078020428d" xmlns="http://www.w3.org/2000/svg" viewBox="0 0 930 57.4"><style>.st0{fill:#fff}</style><title>movie_title</title><path class="st0" d="M19 28.2c2.2-1.4 3.2-3.3 3.2-6.5V9.6c0-5.7-1.8-8.8-9.7-8.8H0v55.8h13c7.7 0 9.4-3.9 9.4-9.7V35c0-3.3-1-5.3-3.4-6.8zm-6.3 17.6c.2.7-.3 1.4-1 1.6H9.3V32.9h1.6c1.3 0 1.8.5 1.8 1.8v11.1zm0-23.9c0 1.4-.5 1.9-1.7 1.9H9.3V10h1.8c.7-.1 1.4.4 1.5 1.2v.4l.1 10.3zm55.2 34.7h18.4v-9.2h-8.6V32.9h7.5v-9h-7.5V10.1h8.6V.8H67.9zm63.6 0h9.9V32.9h6.6v-9h-6.6V10.1h7.8V.8h-17.7zM205.4 0c-8.9 0-11.5 4.7-11.5 10.8v35.8c0 6.1 2.6 10.8 11.5 10.8s11.5-4.6 11.5-10.8V10.8c0-6.1-2.6-10.8-11.5-10.8zm1.7 46.6c0 1.3-.6 2-1.7 2s-1.7-.7-1.7-2V10.8c-.1-.9.5-1.8 1.5-1.9.9-.1 1.8.5 1.9 1.5v36.2zm77.7-21.8v-14c0-6.2-1.7-10-9.3-10h-13.2v55.8h9.4V34.1h.2l5.4 22.5h10.4l-6.5-23.3c2.5-1.2 3.6-3.7 3.6-8.5zm-9.8-.9c.2.8-.4 1.6-1.2 1.7h-2.2V10h1.5c.9-.2 1.7.4 1.9 1.3v12.6zm56.8 32.7h18.4v-9.2h-8.6V32.9h7.5v-9h-7.5V10.1h8.6V.8h-18.4zM448.7 6.8h6.5v49.8h6.2V6.8h6.5v-6h-19.2zm81 18.7h-7.5V.8H516v55.8h6.2V31.3h7.5v25.3h6.2V.8h-6.2zm55.9 31.1H602v-5.9h-10.2V31.3h8.8v-5.8h-8.8V6.8H602v-6h-16.4zm120.2 0h5V30.8h9v-4.6h-9V5.7h10.4V.8h-15.4zM760.7.8h-5v55.8h13.8v-4.8h-8.8zm51.9-.8c-7.3 0-9.4 4.1-9.4 9.8v37.9c0 5.7 2.1 9.7 9.4 9.7s9.4-4 9.4-9.7V9.8c0-5.7-2.1-9.8-9.4-9.8zm4.4 47.7c0 3-1 5.3-4.4 5.3s-4.4-2.2-4.4-5.3V9.8c0-3 1-5.3 4.4-5.3s4.4 2.2 4.4 5.3v37.9zM866.3 0c-7.3 0-9.4 4.1-9.4 9.8v37.9c0 5.7 2.1 9.7 9.4 9.7s9.4-4 9.4-9.7V9.8c0-5.7-2.1-9.8-9.4-9.8zm4.3 47.7c0 3-1 5.3-4.4 5.3s-4.4-2.2-4.4-5.3V9.8c0-3 1-5.3 4.4-5.3s4.4 2.2 4.4 5.3v37.9zM920.2.8H911v55.8h9.4c7.7 0 9.6-3.9 9.6-9.7V10.4c0-5.7-2.1-9.6-9.8-9.6zm4.7 46.2c0 3-1 4.9-4.8 4.9H916V5.7h4.2c3.8 0 4.8 1.8 4.8 4.8V47z"/></svg>