<svg data-name="Layer 1" xmlns="http://www.w3.org/2000/svg" viewBox="0 0 34 25.69"><title>tweet</title><path data-name="Page-1" d="M1.5 25.69A1.51 1.51 0 0 1 0 24.18V1.51A1.51 1.51 0 0 1 1.5 0h31A1.51 1.51 0 0 1 34 1.51v22.67a1.51 1.51 0 0 1-1.5 1.51zM23.88 8.84a5.18 5.18 0 0 1-1.51.43 2.74 2.74 0 0 0 1.16-1.52 5.09 5.09 0 0 1-1.67.66 2.6 2.6 0 0 0-1.92-.86 2.69 2.69 0 0 0-2.63 2.74 2.79 2.79 0 0 0 .07.63 7.37 7.37 0 0 1-5.42-2.86 2.82 2.82 0 0 0-.36 1.38 2.77 2.77 0 0 0 1.17 2.28 2.51 2.51 0 0 1-1.19-.34 2.71 2.71 0 0 0 2.11 2.69 2.63 2.63 0 0 1-.69.1 2.56 2.56 0 0 1-.5 0A2.64 2.64 0 0 0 14.94 16a5.15 5.15 0 0 1-3.27 1.17 5.48 5.48 0 0 1-.63 0 7.25 7.25 0 0 0 4 1.23 7.6 7.6 0 0 0 7.49-7.79v-.35a5.53 5.53 0 0 0 1.32-1.43z"/></svg>