<svg width="155" height="32" viewBox="0 0 155 32" xmlns="http://www.w3.org/2000/svg"><title>Group 3</title><g fill-rule="evenodd"><path d="M99.522 26l-6.024-8.238L87.479 26H85l7.243-9.953L85.628 7h2.48l5.39 7.379L98.888 7h2.477l-6.61 9.045L102 26zM53 26l-7.25-9.953L52.365 7h-2.479l-5.39 7.381L39.11 7h-2.472l6.61 9.047L36 26h2.482l6.016-8.236L50.52 26z"/><path d="M66.399 16.766a5.151 5.151 0 0 0-1.216-.792 4.32 4.32 0 0 0 2.23-3.805c0-1.216-.437-5.169-6.028-5.169h-7.531v8.191h-2.508A56.714 56.714 0 0 0 50 17.098h3.854v8.9l7.532.002C65.466 26 68 23.879 68 20.453c0-1.495-.551-2.766-1.601-3.687zM55.936 8.983h5.45c1.474 0 3.945.377 3.945 3.02 0 1.998-1.438 3.188-3.945 3.188h-5.45V8.983zm5.449 15.035h-5.45v-6.915h5.45c2.065 0 4.538.584 4.538 3.309 0 3.137-2.843 3.606-4.538 3.606zM78.007 6C72.706 6 69 10.11 69 15.997 69 21.893 72.706 26 78.007 26 83.304 26 87 21.893 87 15.997 87 10.111 83.304 6 78.007 6m0 17.976c-4.04 0-6.87-3.282-6.87-7.979 0-4.696 2.83-7.976 6.87-7.976 4.034 0 6.847 3.28 6.847 7.976 0 4.697-2.813 7.979-6.847 7.979M4.514 4.096c-.011.008-.016.015-.014.013v.002C1.723 6.98 0 10.966 0 15.376c0 3.606 1.153 6.93 3.092 9.591.02.027.052.042.081.027.027-.017.029-.052.018-.082-1.154-3.732 4.74-12.779 7.787-16.571.01-.013.022-.028.022-.047 0-.021-.014-.038-.029-.051C5.848 2.905 4.481 4.126 4.5 4.109m21.985-.011c.011.008.014.014.014.013v.001C29.28 6.982 31 10.968 31 15.377c0 3.606-1.154 6.929-3.094 9.59-.019.027-.052.042-.08.027-.026-.017-.028-.052-.018-.082 1.153-3.732-4.74-12.784-7.786-16.578-.01-.013-.022-.028-.022-.045 0-.023.013-.04.029-.053 5.127-5.337 6.486-4.109 6.469-4.125M15.012 0c3.082 0 5.619.934 7.957 2.472.03.016.037.052.026.084-.011.03-.043.037-.074.028-2.957-.707-7.453 2.12-7.877 2.402-.01.007-.02.014-.032.014-.015 0-.024-.007-.034-.014-1.127-.716-5.283-3.125-7.9-2.384-.028.007-.06.002-.073-.03a.07.07 0 0 1 .025-.084C9.37.934 11.937 0 15.012 0m.488 13c.019 0 .038.015.049.025 4.572 3.608 12.396 12.529 10.008 15.052l.003-.004-.002.004h-.003C22.869 30.517 19.35 32 15.499 32c-3.852 0-7.37-1.482-10.057-3.923l-.003-.004.003.004c-2.384-2.523 5.439-11.444 10.006-15.052.013-.01.034-.025.053-.025M137.95 7.015v15.593L126.824 7.003 125 7v18.985h2.049V10.737l10.898 15.26L140 26V7.015zM114.008 6C108.707 6 105 10.111 105 15.994 105 21.887 108.707 26 114.008 26c5.297 0 8.992-4.113 8.992-10.006C123 10.113 119.305 6 114.008 6m0 17.973c-4.04 0-6.87-3.281-6.87-7.979 0-4.693 2.83-7.974 6.87-7.974 4.033 0 6.847 3.281 6.847 7.974 0 4.698-2.814 7.979-6.847 7.979m30.052.168v-7.025h10.125v-1.858H144.06V8.857h10.813V7H142v19h13v-1.859z"/></g></svg>