<svg width="82" height="35" viewBox="0 0 82 35" xmlns="http://www.w3.org/2000/svg"><title>Group 8</title><path d="M13.902 28.693c-.666-.23-1.12-.544-1.676-1.153-1.165-1.279-1.23-1.66-1.23-7.34 0-5.473.083-5.988 1.17-7.273 1.523-1.802 5.045-1.748 6.549.098.999 1.227 1.08 1.773 1.08 7.259 0 4.34-.037 5.065-.3 5.824-.4 1.163-1.582 2.288-2.781 2.649-1.13.34-1.688.327-2.812-.064zm2.067-2.632c.68-.264.755-.842.755-5.761 0-3.14-.063-4.844-.188-5.122-.42-.934-1.86-.934-2.28 0-.126.278-.188 1.983-.188 5.122 0 5.489.069 5.807 1.272 5.852.199.007.481-.034.63-.091zm7.375 2.54c-.239-.131-.575-.525-.747-.875-.29-.59-.316-1.194-.362-8.325l-.049-7.688h3.17v7.038c0 6.023.035 7.067.247 7.244.368.31.965.083 1.641-.621l.602-.627V11.714H31v16.972h-3.154v-1.709l-.789.708c-.433.39-1.029.812-1.322.939-.685.295-1.834.283-2.39-.023zM4.105 24.023l-.002-4.664-2.052-6.637L0 6.084l1.667-.048c.975-.028 1.708.02 1.768.118.056.092.585 2.022 1.175 4.29.591 2.269 1.112 4.125 1.159 4.125.046 0 .481-1.53.967-3.402.486-1.871.995-3.8 1.131-4.285L8.115 6h1.749c1.425 0 1.733.043 1.66.234-.048.128-.99 3.15-2.092 6.714l-2.004 6.48v9.258h-3.32l-.003-4.663zm42.5 10.881c-8.015-.274-10.185-.858-11.66-3.139-.597-.922-1.266-2.984-1.48-4.557-.748-5.521-.564-17.034.336-21.002.814-3.593 2.729-5.353 6.223-5.72 3.431-.36 12.378-.557 21.08-.463C70.498.125 74.92.331 76.52.741c3.13.802 4.65 3.163 5.179 8.05.1.924.223 4.15.273 7.167.202 12.185-.693 16.062-4.105 17.773-1.288.647-2.131.795-5.772 1.018-3.955.241-20.095.34-25.49.155zm3.943-6.641c.277-.147.827-.572 1.223-.946l.72-.679v1.723h3.117V11.562H52.49v12.812l-.716.733c-.77.788-1.08.886-1.487.47-.226-.231-.258-1.113-.258-7.14v-6.875h-3.117v7.277c0 8.028.065 8.663.947 9.337.558.426 1.962.472 2.69.087zm15.004-.054c.286-.18.683-.677.902-1.134.385-.8.393-.91.447-6.354.059-5.969-.035-7.047-.72-8.257-.38-.672-1.287-1.238-1.985-1.238-.673 0-1.636.463-2.37 1.14l-.804.74V5.85h-2.953v22.51h2.953v-1.55l.673.623c.37.343.906.726 1.19.853.761.34 2.06.302 2.667-.077zm-3.915-2.74l-.615-.366V14.801l.728-.396c.59-.32.815-.364 1.19-.23.808.292.895.933.839 6.18l-.05 4.676-.46.405c-.564.496-.841.502-1.632.032zm13.822 2.71c1.586-.736 2.3-1.98 2.424-4.226l.082-1.472h-3.162v.998c0 1.22-.185 1.754-.736 2.124-.622.417-1.394.152-1.766-.605-.224-.457-.287-1.014-.287-2.559v-1.973h5.906v-2.467c0-3.104-.237-4.094-1.26-5.258-.903-1.029-1.87-1.438-3.334-1.41-1.213.022-2.023.332-2.875 1.097-1.391 1.251-1.602 2.366-1.519 8.038.054 3.685.114 4.583.348 5.217.399 1.082 1.12 1.906 2.11 2.411 1.115.569 2.944.607 4.07.085zM72.014 16.68c0-2.09.523-2.802 1.84-2.506.662.15.949.907.949 2.506v1.266h-2.789V16.68zm-28.219 2.022v-9.66h3.609v-3.19H37.068v3.192h3.446V28.36h3.281V18.7z" fill-rule="evenodd"/></svg>